<svg width="102" height="25" viewBox="0 0 102 25" fill="none" xmlns="http://www.w3.org/2000/svg">
<g clip-path="url(#clip0_1_1824)">
<path d="M101.185 20.8308C101.01 20.7138 100.776 20.7723 100.674 20.9623C99.6361 22.8624 97.8675 23.5347 96.289 23.5347C92.7227 23.5347 90.8226 19.9977 90.618 15.8175C90.6034 15.5983 90.6034 15.379 90.6034 15.1598V15.1452H100.835C100.981 15.1452 101.098 15.0283 101.098 14.8821C101.171 12.4851 100.089 7.9104 94.7981 7.9104C90.1795 7.9104 86.2188 11.3451 86.2188 16.1537C86.2188 21.05 90.3257 24.4993 94.5643 24.4993C97.2244 24.4993 100.075 23.1547 101.375 20.9477L101.185 20.8308ZM93.9943 8.31964C96.0843 8.78735 96.7859 12.3682 96.6836 14.7506H90.6034C90.6765 10.9651 92.1088 8.31964 93.9943 8.31964Z" fill="white"/>
<path d="M67.9355 20.9623C66.8978 22.8624 65.1293 23.5347 63.5508 23.5347C59.9845 23.5347 58.0845 19.9977 57.8798 15.8175C57.8652 15.5983 57.8652 15.379 57.8652 15.1598V15.1452H68.0963C68.2425 15.1452 68.3594 15.0283 68.3594 14.8821C68.4325 12.4851 67.3509 7.9104 62.06 7.9104C57.4414 7.9104 53.4805 11.3451 53.4805 16.1537C53.4805 21.05 57.5875 24.4993 61.8261 24.4993C64.4862 24.4993 67.3363 23.1547 68.6371 20.9477L68.4763 20.8308C68.2863 20.7138 68.0378 20.7723 67.9355 20.9623ZM61.2561 8.31964C63.3462 8.78735 64.0477 12.3682 63.9454 14.7506H57.8652C57.9529 10.9651 59.3853 8.31964 61.2561 8.31964Z" fill="white"/>
<path d="M35.6621 0.500244V19.9831C35.6621 22.4824 37.6791 24.4994 40.1784 24.4994V5.01653C40.1784 2.53184 38.1614 0.500244 35.6621 0.500244Z" fill="white"/>
<path d="M42.9407 7.64722C42.7069 7.64722 42.5169 7.82261 42.5169 8.05647C42.4876 8.05647 42.5023 8.05647 42.5169 8.05647C45.2939 8.74341 46.887 12.6312 46.5362 17.4544C46.2731 21.0937 45.0746 23.7538 42.5169 24.09C42.5169 24.3238 42.7069 24.5139 42.9554 24.4992C43.9931 24.4554 45.0162 24.2215 45.9662 23.8123C49.9856 22.073 52.3972 17.2498 50.4094 12.6896C48.9917 9.44497 45.9954 7.74953 42.9407 7.64722Z" fill="white"/>
<path d="M0 0.500244V19.9831C0 22.4824 2.01699 24.4994 4.51629 24.4994V5.01653C4.51629 2.53184 2.49931 0.500244 0 0.500244Z" fill="white"/>
<path d="M7.27863 7.64722C7.04477 7.64722 6.85477 7.82261 6.85477 8.05647C6.82554 8.05647 6.84015 8.05647 6.85477 8.05647C9.63178 8.74341 11.2249 12.6312 10.8741 17.4544C10.611 21.0937 9.41254 23.7538 6.85477 24.09C6.85477 24.3238 7.04477 24.5139 7.29324 24.4992C8.33097 24.4554 9.35408 24.2215 10.3041 23.8123C14.3235 22.073 16.7351 17.2498 14.7473 12.6896C13.3296 9.44497 10.3333 7.74953 7.27863 7.64722Z" fill="white"/>
<path d="M32.2578 20.9623C31.2201 22.8624 29.4516 23.5347 27.873 23.5347C24.3068 23.5347 22.4067 19.9977 22.2021 15.8175C22.1875 15.5983 22.1875 15.379 22.1875 15.1598V15.1452H32.4186C32.5647 15.1452 32.6817 15.0283 32.6817 14.8821C32.7547 12.4851 31.6732 7.9104 26.3822 7.9104C21.7636 7.9104 17.8027 11.3451 17.8027 16.1537C17.8027 21.05 21.9098 24.4993 26.1484 24.4993C28.8085 24.4993 31.6585 23.1547 32.9594 20.9477L32.7986 20.8308C32.594 20.7138 32.3601 20.7723 32.2578 20.9623ZM25.5784 8.31964C27.6684 8.78735 28.37 12.3682 28.2677 14.7506H22.1875C22.2606 10.9651 23.6929 8.31964 25.5784 8.31964Z" fill="white"/>
<path d="M84.6406 21.0064C83.6029 22.8919 81.8344 23.5496 80.2412 23.5496C76.4996 23.5496 74.5703 19.6326 74.5703 14.897C74.5703 11.93 75.3303 9.57691 76.9527 8.69996C76.9527 8.40764 76.675 8.1884 76.3827 8.26148C72.831 9.21151 70.1855 12.2369 70.1855 16.1686C70.1855 21.0064 74.2487 24.4996 78.5312 24.4996C81.1913 24.4996 84.0414 23.155 85.3422 20.948L85.2252 20.8603C85.0206 20.7287 84.7575 20.7872 84.6406 21.0064Z" fill="white"/>
<path d="M78.6032 8.48041C79.9625 9.35736 81.9502 11.3305 83.2072 12.7044L84.4203 9.22582C83.0756 8.52426 80.854 7.9104 78.8809 7.9104H78.764C78.5886 7.9104 78.457 8.05655 78.457 8.21733C78.457 8.33426 78.5155 8.42195 78.6032 8.48041Z" fill="white"/>
<path d="M93.7763 2.80967L98.0003 5.65976L98.1757 5.52822L93.864 0.558838H93.6886L89.377 5.52822L89.5523 5.65976L93.7763 2.80967Z" fill="white"/>
</g>
<defs>
<clipPath id="clip0_1_1824">
<rect width="102" height="24" fill="white" transform="translate(0 0.500244)"/>
</clipPath>
</defs>
</svg>
