<svg width="19" height="12" viewBox="0 0 19 12" fill="none" xmlns="http://www.w3.org/2000/svg">
<path d="M10.7994 3C10.7994 2.44772 11.2471 2 11.7994 2H12.7994C13.3517 2 13.7994 2.44772 13.7994 3V11C13.7994 11.5523 13.3517 12 12.7994 12H11.7994C11.2471 12 10.7994 11.5523 10.7994 11V3Z" fill="#1D1D1D"/>
<path d="M15.7994 1C15.7994 0.447715 16.2471 0 16.7994 0H17.7994C18.3517 0 18.7994 0.447715 18.7994 1V11C18.7994 11.5523 18.3517 12 17.7994 12H16.7994C16.2471 12 15.7994 11.5523 15.7994 11V1Z" fill="#1D1D1D"/>
<path d="M5.79941 6.5C5.79941 5.94772 6.24712 5.5 6.79941 5.5H7.79941C8.35169 5.5 8.79941 5.94772 8.79941 6.5V11C8.79941 11.5523 8.35169 12 7.79941 12H6.79941C6.24712 12 5.79941 11.5523 5.79941 11V6.5Z" fill="#1D1D1D"/>
<path d="M0.799408 9C0.799408 8.44772 1.24712 8 1.79941 8H2.79941C3.35169 8 3.79941 8.44772 3.79941 9V11C3.79941 11.5523 3.35169 12 2.79941 12H1.79941C1.24712 12 0.799408 11.5523 0.799408 11V9Z" fill="#1D1D1D"/>
</svg>
