<svg width="29" height="13" viewBox="0 0 29 13" fill="none" xmlns="http://www.w3.org/2000/svg">
<path opacity="0.35" d="M4.79941 0.5H21.7994C23.7324 0.5 25.2994 2.067 25.2994 4V9C25.2994 10.933 23.7324 12.5 21.7994 12.5H4.79941C2.86641 12.5 1.29941 10.933 1.29941 9V4C1.29941 2.067 2.86641 0.5 4.79941 0.5Z" stroke="#1D1D1D"/>
<path opacity="0.4" d="M26.7994 5V9.22034C27.6485 8.86291 28.2006 8.0314 28.2006 7.11017C28.2006 6.18894 27.6485 5.35744 26.7994 5Z" fill="#1D1D1D"/>
<path d="M2.79941 4C2.79941 2.89543 3.69484 2 4.79941 2H21.7994C22.904 2 23.7994 2.89543 23.7994 4V9C23.7994 10.1046 22.904 11 21.7994 11H4.79941C3.69484 11 2.79941 10.1046 2.79941 9V4Z" fill="#1D1D1D"/>
</svg>
