<svg width="14" height="15" viewBox="0 0 14 15" fill="none" xmlns="http://www.w3.org/2000/svg">
<g clip-path="url(#clip0_1494_221)">
<path d="M10.5 4.00024C10.5 3.07199 10.1313 2.18175 9.47487 1.52537C8.8185 0.868993 7.92826 0.500244 7 0.500244C6.07174 0.500244 5.1815 0.868993 4.52513 1.52537C3.86875 2.18175 3.5 3.07199 3.5 4.00024H0V12.7502C0 13.2144 0.184374 13.6595 0.512563 13.9877C0.840752 14.3159 1.28587 14.5002 1.75 14.5002H12.25C12.7141 14.5002 13.1592 14.3159 13.4874 13.9877C13.8156 13.6595 14 13.2144 14 12.7502V4.00024H10.5ZM7 1.66691C7.61884 1.66691 8.21233 1.91274 8.64992 2.35033C9.0875 2.78791 9.33333 3.38141 9.33333 4.00024H4.66667C4.66667 3.38141 4.9125 2.78791 5.35008 2.35033C5.78767 1.91274 6.38116 1.66691 7 1.66691ZM12.8333 12.7502C12.8333 12.905 12.7719 13.0533 12.6625 13.1627C12.5531 13.2721 12.4047 13.3336 12.25 13.3336H1.75C1.59529 13.3336 1.44692 13.2721 1.33752 13.1627C1.22812 13.0533 1.16667 12.905 1.16667 12.7502V5.16691H3.5V6.33358H4.66667V5.16691H9.33333V6.33358H10.5V5.16691H12.8333V12.7502Z" fill="#1D1D1D"/>
</g>
<defs>
<clipPath id="clip0_1494_221">
<rect width="14" height="14" fill="white" transform="translate(0 0.500244)"/>
</clipPath>
</defs>
</svg>
