<svg width="14" height="15" viewBox="0 0 14 15" fill="none" xmlns="http://www.w3.org/2000/svg">
<g clip-path="url(#clip0_1_2028)">
<path d="M12.25 14.5002H11.0833V11.5585C11.0829 11.1011 10.901 10.6626 10.5776 10.3393C10.2542 10.0159 9.81575 9.834 9.35842 9.83354H4.64158C4.18425 9.834 3.74578 10.0159 3.42239 10.3393C3.09901 10.6626 2.91713 11.1011 2.91667 11.5585V14.5002H1.75V11.5585C1.75093 10.7918 2.05587 10.0569 2.59795 9.51482C3.14002 8.97274 3.87497 8.6678 4.64158 8.66687H9.35842C10.125 8.6678 10.86 8.97274 11.4021 9.51482C11.9441 10.0569 12.2491 10.7918 12.25 11.5585V14.5002Z" fill="#1D1D1D"/>
<path d="M7 7.50025C6.30777 7.50025 5.63108 7.29497 5.05551 6.91039C4.47993 6.5258 4.03133 5.97918 3.76642 5.33964C3.50152 4.7001 3.4322 3.99636 3.56725 3.31743C3.7023 2.6385 4.03564 2.01486 4.52513 1.52537C5.01461 1.03589 5.63825 0.702546 6.31719 0.567497C6.99612 0.432449 7.69985 0.501761 8.33939 0.766667C8.97893 1.03157 9.52556 1.48018 9.91014 2.05575C10.2947 2.63132 10.5 3.30801 10.5 4.00025C10.4991 4.92822 10.13 5.81792 9.47385 6.4741C8.81768 7.13027 7.92797 7.49932 7 7.50025ZM7 1.66691C6.53851 1.66691 6.08739 1.80376 5.70367 2.06015C5.31996 2.31654 5.02089 2.68096 4.84428 3.10732C4.66768 3.53368 4.62147 4.00283 4.7115 4.45546C4.80153 4.90808 5.02376 5.32384 5.35009 5.65016C5.67641 5.97648 6.09217 6.19871 6.54479 6.28875C6.99741 6.37878 7.46657 6.33257 7.89293 6.15597C8.31929 5.97936 8.68371 5.68029 8.9401 5.29658C9.19649 4.91286 9.33333 4.46174 9.33333 4.00025C9.33333 3.38141 9.0875 2.78791 8.64992 2.35033C8.21233 1.91275 7.61884 1.66691 7 1.66691Z" fill="#1D1D1D"/>
</g>
<defs>
<clipPath id="clip0_1_2028">
<rect width="14" height="14" fill="white" transform="translate(0 0.500244)"/>
</clipPath>
</defs>
</svg>
