<svg width="14" height="15" viewBox="0 0 14 15" fill="none" xmlns="http://www.w3.org/2000/svg">
<g clip-path="url(#clip0_1_2021)">
<path d="M14.0001 13.6754L10.3473 10.0226C11.2961 8.86209 11.7627 7.38129 11.6504 5.88648C11.538 4.39167 10.8555 2.99722 9.74387 1.99154C8.63226 0.98587 7.17663 0.445926 5.67807 0.483395C4.17952 0.520863 2.75269 1.13288 1.69272 2.19285C0.632756 3.25282 0.0207412 4.67964 -0.0167273 6.1782C-0.0541959 7.67675 0.485748 9.13238 1.49142 10.244C2.49709 11.3556 3.89155 12.0382 5.38636 12.1505C6.88117 12.2628 8.36196 11.7963 9.52245 10.8474L13.1753 14.5002L14.0001 13.6754ZM5.83345 11.0002C4.91047 11.0002 4.00822 10.7265 3.24079 10.2138C2.47336 9.70098 1.87522 8.97215 1.52201 8.11943C1.1688 7.26671 1.07639 6.3284 1.25645 5.42315C1.43652 4.51791 1.88097 3.68639 2.53362 3.03374C3.18626 2.3811 4.01778 1.93664 4.92303 1.75657C5.82827 1.57651 6.76658 1.66893 7.61931 2.02213C8.47203 2.37534 9.20086 2.97348 9.71364 3.74091C10.2264 4.50834 10.5001 5.41059 10.5001 6.33357C10.4987 7.57082 10.0066 8.757 9.13175 9.63187C8.25688 10.5067 7.0707 10.9988 5.83345 11.0002Z" fill="#1D1D1D"/>
</g>
<defs>
<clipPath id="clip0_1_2021">
<rect width="14" height="14" fill="white" transform="translate(0 0.500244)"/>
</clipPath>
</defs>
</svg>
