<svg width="14" height="15" viewBox="0 0 14 15" fill="none" xmlns="http://www.w3.org/2000/svg">
<g clip-path="url(#clip0_1409_74)">
<path d="M14 13.6754L10.3472 10.0226C11.296 8.86209 11.7625 7.38129 11.6502 5.88648C11.5379 4.39167 10.8554 2.99722 9.74375 1.99154C8.63214 0.98587 7.17651 0.445926 5.67795 0.483395C4.1794 0.520863 2.75257 1.13288 1.6926 2.19285C0.632633 3.25282 0.0206191 4.67964 -0.0168494 6.1782C-0.054318 7.67675 0.485626 9.13238 1.4913 10.244C2.49697 11.3556 3.89143 12.0382 5.38624 12.1505C6.88105 12.2628 8.36184 11.7963 9.52233 10.8474L13.1752 14.5002L14 13.6754ZM5.83333 11.0002C4.91035 11.0002 4.0081 10.7265 3.24067 10.2138C2.47324 9.70098 1.8751 8.97215 1.52189 8.11943C1.16868 7.26671 1.07627 6.3284 1.25633 5.42315C1.43639 4.51791 1.88085 3.68639 2.5335 3.03374C3.18614 2.3811 4.01766 1.93664 4.92291 1.75657C5.82815 1.57651 6.76646 1.66893 7.61918 2.02213C8.47191 2.37534 9.20074 2.97348 9.71352 3.74091C10.2263 4.50834 10.5 5.41059 10.5 6.33357C10.4986 7.57082 10.0065 8.757 9.13163 9.63187C8.25676 10.5067 7.07058 10.9988 5.83333 11.0002Z" fill="white"/>
</g>
<defs>
<clipPath id="clip0_1409_74">
<rect width="14" height="14" fill="white" transform="translate(0 0.500244)"/>
</clipPath>
</defs>
</svg>
